# xmcd
#
# Track frame offsets: 
#        150
#        7791
#        20780
#        27638
#        39307
#        47501
#        61483
#        71313
#        87634
#        95049
#        103350
#        117261
#        130966
#        138545
#        145824
#        154158
#        167503
#        180578
#        194903
#        209103
#
# Disc length: 2901 seconds
#
# Revision: 0
# Processed by: cddbd v1.5.2PL0 Copyright (c) Steve Scherf et al.
# Submitted via: ExactAudioCopy v0.99pb3
#
DISCID=2d0b5314
DTITLE=Steve Easter - Bluegrass Instrumental - 20 Favorites
DYEAR=1992
DGENRE=Gospel
TTITLE0=Are You Washed In the Blood?
TTITLE1=Because He Lives
TTITLE2=He Set Me Free
TTITLE3=I Surrender All
TTITLE4=I Wouldn't Take Nothing for My Journey
TTITLE5=Just a Closer Walk With Thee
TTITLE6=Keep On the Firing Line
TTITLE7=Molly's Song
TTITLE8=O, I Want to See Him
TTITLE9=The Old Gospel Ship
TTITLE10=Peace in the Valley
TTITLE11=Rock of Ages
TTITLE12=Sweet By and By
TTITLE13=There is a Light at the River
TTITLE14=Uncloudy Day
TTITLE15=Victory in Jesus
TTITLE16=What a Friends We Have in Jesus
TTITLE17=Where Could I Go
TTITLE18=Who Am I
TTITLE19=Will the Circle Be Unbroken
EXTD=
EXTT0=
EXTT1=
EXTT2=
EXTT3=
EXTT4=
EXTT5=
EXTT6=
EXTT7=
EXTT8=
EXTT9=
EXTT10=
EXTT11=
EXTT12=
EXTT13=
EXTT14=
EXTT15=
EXTT16=
EXTT17=
EXTT18=
EXTT19=
PLAYORDER=
